<svg xmlns="http://www.w3.org/2000/svg" xmlns:xlink="http://www.w3.org/1999/xlink" width="512" zoomAndPan="magnify" viewBox="0 0 384 383.999986" height="512" preserveAspectRatio="xMidYMid meet" version="1.0"><defs><clipPath id="9c04e081cd"><path d="M 0 0 L 383.945312 0 L 383.945312 383.945312 L 0 383.945312 Z M 0 0 " clip-rule="nonzero"/></clipPath><clipPath id="a56b6f86a9"><rect x="0" width="384" y="0" height="384"/></clipPath></defs><g><g clip-path="url(#a56b6f86a9)"><g clip-path="url(#9c04e081cd)"><path fill="#ffffff" d="M 0 0 L 383.945312 0 L 383.945312 383.945312 L 0 383.945312 Z M 0 0 " fill-opacity="1" fill-rule="nonzero"/></g><path stroke-linecap="butt" transform="matrix(9.364489, 0, 0, 9.364489, 0.0000072, 0)" fill="none" stroke-linejoin="miter" d="M 3.999901 4.500045 L 10.999832 4.500045 M 12.00012 4.500045 L 12.999991 4.500045 M 13.999862 4.500045 L 19.000052 4.500045 M 19.999923 4.500045 L 23.999824 4.500045 M 25.999983 4.500045 L 28.000142 4.500045 M 29.999884 4.500045 L 36.999816 4.500045 M 3.999901 5.499916 L 5.000189 5.499916 M 9.999961 5.499916 L 10.999832 5.499916 M 12.00012 5.499916 L 12.999991 5.499916 M 15.00015 5.499916 L 18.000181 5.499916 M 19.999923 5.499916 L 20.999794 5.499916 M 22.000082 5.499916 L 22.999953 5.499916 M 23.999824 5.499916 L 28.000142 5.499916 M 29.999884 5.499916 L 31.000173 5.499916 M 35.999945 5.499916 L 36.999816 5.499916 M 3.999901 6.500205 L 5.000189 6.500205 M 6.00006 6.500205 L 9.00009 6.500205 M 9.999961 6.500205 L 10.999832 6.500205 M 12.999991 6.500205 L 16.999893 6.500205 M 20.999794 6.500205 L 22.000082 6.500205 M 25.000112 6.500205 L 26.999854 6.500205 M 29.999884 6.500205 L 31.000173 6.500205 M 32.000044 6.500205 L 35.000074 6.500205 M 35.999945 6.500205 L 36.999816 6.500205 M 3.999901 7.500076 L 5.000189 7.500076 M 6.00006 7.500076 L 9.00009 7.500076 M 9.999961 7.500076 L 10.999832 7.500076 M 12.00012 7.500076 L 15.00015 7.500076 M 16.000021 7.500076 L 16.999893 7.500076 M 18.000181 7.500076 L 20.999794 7.500076 M 23.999824 7.500076 L 26.999854 7.500076 M 28.000142 7.500076 L 29.000013 7.500076 M 29.999884 7.500076 L 31.000173 7.500076 M 32.000044 7.500076 L 35.000074 7.500076 M 35.999945 7.500076 L 36.999816 7.500076 M 3.999901 8.499947 L 5.000189 8.499947 M 6.00006 8.499947 L 9.00009 8.499947 M 9.999961 8.499947 L 10.999832 8.499947 M 12.999991 8.499947 L 15.00015 8.499947 M 16.000021 8.499947 L 16.999893 8.499947 M 18.000181 8.499947 L 19.000052 8.499947 M 23.999824 8.499947 L 25.000112 8.499947 M 26.999854 8.499947 L 28.000142 8.499947 M 29.999884 8.499947 L 31.000173 8.499947 M 32.000044 8.499947 L 35.000074 8.499947 M 35.999945 8.499947 L 36.999816 8.499947 M 3.999901 9.499818 L 5.000189 9.499818 M 9.999961 9.499818 L 10.999832 9.499818 M 12.999991 9.499818 L 15.00015 9.499818 M 20.999794 9.499818 L 26.999854 9.499818 M 28.000142 9.499818 L 29.000013 9.499818 M 29.999884 9.499818 L 31.000173 9.499818 M 35.999945 9.499818 L 36.999816 9.499818 M 3.999901 10.500106 L 10.999832 10.500106 M 12.00012 10.500106 L 12.999991 10.500106 M 13.999862 10.500106 L 15.00015 10.500106 M 16.000021 10.500106 L 16.999893 10.500106 M 18.000181 10.500106 L 19.000052 10.500106 M 19.999923 10.500106 L 20.999794 10.500106 M 22.000082 10.500106 L 22.999953 10.500106 M 23.999824 10.500106 L 25.000112 10.500106 M 25.999983 10.500106 L 26.999854 10.500106 M 28.000142 10.500106 L 29.000013 10.500106 M 29.999884 10.500106 L 36.999816 10.500106 M 12.00012 11.499977 L 15.00015 11.499977 M 16.000021 11.499977 L 16.999893 11.499977 M 18.000181 11.499977 L 19.000052 11.499977 M 20.999794 11.499977 L 22.000082 11.499977 M 23.999824 11.499977 L 25.000112 11.499977 M 25.999983 11.499977 L 26.999854 11.499977 M 28.000142 11.499977 L 29.000013 11.499977 M 3.999901 12.499848 L 5.000189 12.499848 M 6.00006 12.499848 L 7.999802 12.499848 M 9.00009 12.499848 L 12.00012 12.499848 M 13.999862 12.499848 L 16.999893 12.499848 M 18.000181 12.499848 L 19.000052 12.499848 M 19.999923 12.499848 L 23.999824 12.499848 M 25.000112 12.499848 L 29.000013 12.499848 M 29.999884 12.499848 L 31.000173 12.499848 M 32.999915 12.499848 L 34.000203 12.499848 M 35.000074 12.499848 L 36.999816 12.499848 M 6.00006 13.500136 L 6.999931 13.500136 M 7.999802 13.500136 L 9.999961 13.500136 M 15.00015 13.500136 L 16.999893 13.500136 M 18.000181 13.500136 L 19.000052 13.500136 M 19.999923 13.500136 L 20.999794 13.500136 M 22.000082 13.500136 L 25.999983 13.500136 M 26.999854 13.500136 L 28.000142 13.500136 M 29.999884 13.500136 L 32.000044 13.500136 M 32.999915 13.500136 L 35.000074 13.500136 M 35.999945 13.500136 L 36.999816 13.500136 M 5.000189 14.500007 L 6.00006 14.500007 M 6.999931 14.500007 L 10.999832 14.500007 M 12.00012 14.500007 L 12.999991 14.500007 M 13.999862 14.500007 L 16.999893 14.500007 M 18.000181 14.500007 L 19.000052 14.500007 M 20.999794 14.500007 L 22.000082 14.500007 M 26.999854 14.500007 L 29.000013 14.500007 M 31.000173 14.500007 L 34.000203 14.500007 M 35.000074 14.500007 L 36.999816 14.500007 M 3.999901 15.499878 L 5.000189 15.499878 M 6.999931 15.499878 L 7.999802 15.499878 M 10.999832 15.499878 L 12.00012 15.499878 M 12.999991 15.499878 L 13.999862 15.499878 M 16.000021 15.499878 L 20.999794 15.499878 M 22.000082 15.499878 L 25.000112 15.499878 M 31.000173 15.499878 L 32.000044 15.499878 M 32.999915 15.499878 L 34.000203 15.499878 M 6.999931 16.500166 L 7.999802 16.500166 M 9.999961 16.500166 L 10.999832 16.500166 M 12.999991 16.500166 L 15.00015 16.500166 M 16.000021 16.500166 L 16.999893 16.500166 M 19.000052 16.500166 L 19.999923 16.500166 M 22.000082 16.500166 L 22.999953 16.500166 M 25.000112 16.500166 L 25.999983 16.500166 M 28.000142 16.500166 L 29.000013 16.500166 M 32.000044 16.500166 L 34.000203 16.500166 M 35.000074 16.500166 L 36.999816 16.500166 M 5.000189 17.500037 L 9.00009 17.500037 M 12.00012 17.500037 L 13.999862 17.500037 M 15.00015 17.500037 L 16.000021 17.500037 M 16.999893 17.500037 L 18.000181 17.500037 M 19.999923 17.500037 L 20.999794 17.500037 M 22.000082 17.500037 L 22.999953 17.500037 M 25.000112 17.500037 L 26.999854 17.500037 M 31.000173 17.500037 L 32.000044 17.500037 M 32.999915 17.500037 L 34.000203 17.500037 M 35.000074 17.500037 L 35.999945 17.500037 M 5.000189 18.499908 L 6.999931 18.499908 M 9.00009 18.499908 L 12.00012 18.499908 M 12.999991 18.499908 L 16.999893 18.499908 M 19.000052 18.499908 L 20.999794 18.499908 M 25.000112 18.499908 L 25.999983 18.499908 M 29.999884 18.499908 L 31.000173 18.499908 M 32.000044 18.499908 L 35.000074 18.499908 M 3.999901 19.500197 L 6.00006 19.500197 M 6.999931 19.500197 L 7.999802 19.500197 M 9.00009 19.500197 L 9.999961 19.500197 M 12.999991 19.500197 L 18.000181 19.500197 M 19.999923 19.500197 L 20.999794 19.500197 M 22.999953 19.500197 L 25.999983 19.500197 M 28.000142 19.500197 L 31.000173 19.500197 M 32.999915 19.500197 L 35.000074 19.500197 M 3.999901 20.500068 L 6.999931 20.500068 M 7.999802 20.500068 L 10.999832 20.500068 M 13.999862 20.500068 L 15.00015 20.500068 M 18.000181 20.500068 L 19.999923 20.500068 M 22.000082 20.500068 L 23.999824 20.500068 M 25.000112 20.500068 L 28.000142 20.500068 M 29.000013 20.500068 L 31.000173 20.500068 M 32.000044 20.500068 L 35.000074 20.500068 M 5.000189 21.499939 L 6.999931 21.499939 M 9.00009 21.499939 L 9.999961 21.499939 M 15.00015 21.499939 L 16.000021 21.499939 M 18.000181 21.499939 L 19.999923 21.499939 M 20.999794 21.499939 L 22.000082 21.499939 M 23.999824 21.499939 L 31.000173 21.499939 M 32.000044 21.499939 L 34.000203 21.499939 M 35.000074 21.499939 L 36.999816 21.499939 M 9.999961 22.49981 L 12.999991 22.49981 M 19.000052 22.49981 L 22.000082 22.49981 M 25.999983 22.49981 L 26.999854 22.49981 M 29.000013 22.49981 L 32.999915 22.49981 M 34.000203 22.49981 L 35.000074 22.49981 M 3.999901 23.500098 L 5.000189 23.500098 M 6.00006 23.500098 L 6.999931 23.500098 M 10.999832 23.500098 L 12.999991 23.500098 M 13.999862 23.500098 L 15.00015 23.500098 M 16.000021 23.500098 L 19.000052 23.500098 M 23.999824 23.500098 L 25.999983 23.500098 M 26.999854 23.500098 L 31.000173 23.500098 M 32.000044 23.500098 L 32.999915 23.500098 M 35.000074 23.500098 L 36.999816 23.500098 M 6.00006 24.499969 L 7.999802 24.499969 M 9.00009 24.499969 L 13.999862 24.499969 M 15.00015 24.499969 L 16.999893 24.499969 M 18.000181 24.499969 L 19.999923 24.499969 M 22.000082 24.499969 L 22.999953 24.499969 M 23.999824 24.499969 L 25.000112 24.499969 M 26.999854 24.499969 L 29.000013 24.499969 M 31.000173 24.499969 L 32.000044 24.499969 M 32.999915 24.499969 L 36.999816 24.499969 M 3.999901 25.49984 L 6.00006 25.49984 M 6.999931 25.49984 L 7.999802 25.49984 M 9.00009 25.49984 L 9.999961 25.49984 M 10.999832 25.49984 L 15.00015 25.49984 M 16.999893 25.49984 L 18.000181 25.49984 M 19.000052 25.49984 L 19.999923 25.49984 M 20.999794 25.49984 L 22.999953 25.49984 M 25.000112 25.49984 L 25.999983 25.49984 M 26.999854 25.49984 L 28.000142 25.49984 M 29.999884 25.49984 L 31.000173 25.49984 M 32.999915 25.49984 L 34.000203 25.49984 M 35.999945 25.49984 L 36.999816 25.49984 M 6.00006 26.500128 L 10.999832 26.500128 M 16.000021 26.500128 L 18.000181 26.500128 M 19.999923 26.500128 L 20.999794 26.500128 M 22.000082 26.500128 L 22.999953 26.500128 M 25.000112 26.500128 L 31.000173 26.500128 M 32.000044 26.500128 L 32.999915 26.500128 M 34.000203 26.500128 L 36.999816 26.500128 M 5.000189 27.499999 L 9.00009 27.499999 M 10.999832 27.499999 L 12.00012 27.499999 M 12.999991 27.499999 L 13.999862 27.499999 M 15.00015 27.499999 L 16.999893 27.499999 M 18.000181 27.499999 L 19.000052 27.499999 M 19.999923 27.499999 L 20.999794 27.499999 M 22.000082 27.499999 L 23.999824 27.499999 M 29.000013 27.499999 L 29.999884 27.499999 M 31.000173 27.499999 L 32.000044 27.499999 M 32.999915 27.499999 L 34.000203 27.499999 M 35.000074 27.499999 L 35.999945 27.499999 M 3.999901 28.49987 L 5.000189 28.49987 M 7.999802 28.49987 L 9.00009 28.49987 M 9.999961 28.49987 L 10.999832 28.49987 M 12.999991 28.49987 L 16.000021 28.49987 M 18.000181 28.49987 L 19.999923 28.49987 M 20.999794 28.49987 L 22.999953 28.49987 M 25.999983 28.49987 L 26.999854 28.49987 M 28.000142 28.49987 L 34.000203 28.49987 M 35.000074 28.49987 L 36.999816 28.49987 M 12.00012 29.500158 L 15.00015 29.500158 M 16.000021 29.500158 L 16.999893 29.500158 M 19.000052 29.500158 L 22.000082 29.500158 M 22.999953 29.500158 L 23.999824 29.500158 M 26.999854 29.500158 L 29.000013 29.500158 M 32.000044 29.500158 L 34.000203 29.500158 M 35.000074 29.500158 L 35.999945 29.500158 M 3.999901 30.500029 L 10.999832 30.500029 M 12.00012 30.500029 L 12.999991 30.500029 M 13.999862 30.500029 L 15.00015 30.500029 M 16.000021 30.500029 L 19.000052 30.500029 M 19.999923 30.500029 L 20.999794 30.500029 M 22.999953 30.500029 L 23.999824 30.500029 M 25.999983 30.500029 L 29.000013 30.500029 M 29.999884 30.500029 L 31.000173 30.500029 M 32.000044 30.500029 L 32.999915 30.500029 M 3.999901 31.4999 L 5.000189 31.4999 M 9.999961 31.4999 L 10.999832 31.4999 M 12.00012 31.4999 L 13.999862 31.4999 M 15.00015 31.4999 L 16.999893 31.4999 M 18.000181 31.4999 L 20.999794 31.4999 M 23.999824 31.4999 L 29.000013 31.4999 M 32.000044 31.4999 L 35.000074 31.4999 M 3.999901 32.500189 L 5.000189 32.500189 M 6.00006 32.500189 L 9.00009 32.500189 M 9.999961 32.500189 L 10.999832 32.500189 M 12.999991 32.500189 L 13.999862 32.500189 M 15.00015 32.500189 L 16.999893 32.500189 M 18.000181 32.500189 L 19.999923 32.500189 M 20.999794 32.500189 L 22.000082 32.500189 M 23.999824 32.500189 L 25.000112 32.500189 M 26.999854 32.500189 L 32.999915 32.500189 M 34.000203 32.500189 L 36.999816 32.500189 M 3.999901 33.50006 L 5.000189 33.50006 M 6.00006 33.50006 L 9.00009 33.50006 M 9.999961 33.50006 L 10.999832 33.50006 M 12.00012 33.50006 L 12.999991 33.50006 M 16.000021 33.50006 L 19.000052 33.50006 M 20.999794 33.50006 L 25.999983 33.50006 M 28.000142 33.50006 L 29.000013 33.50006 M 31.000173 33.50006 L 32.000044 33.50006 M 32.999915 33.50006 L 34.000203 33.50006 M 35.000074 33.50006 L 36.999816 33.50006 M 3.999901 34.499931 L 5.000189 34.499931 M 6.00006 34.499931 L 9.00009 34.499931 M 9.999961 34.499931 L 10.999832 34.499931 M 12.00012 34.499931 L 12.999991 34.499931 M 16.000021 34.499931 L 19.000052 34.499931 M 20.999794 34.499931 L 22.000082 34.499931 M 22.999953 34.499931 L 23.999824 34.499931 M 25.000112 34.499931 L 25.999983 34.499931 M 28.000142 34.499931 L 29.000013 34.499931 M 29.999884 34.499931 L 32.000044 34.499931 M 32.999915 34.499931 L 35.000074 34.499931 M 3.999901 35.499802 L 5.000189 35.499802 M 9.999961 35.499802 L 10.999832 35.499802 M 13.999862 35.499802 L 16.000021 35.499802 M 18.000181 35.499802 L 23.999824 35.499802 M 25.999983 35.499802 L 29.999884 35.499802 M 31.000173 35.499802 L 32.999915 35.499802 M 35.999945 35.499802 L 36.999816 35.499802 M 3.999901 36.50009 L 10.999832 36.50009 M 12.00012 36.50009 L 13.999862 36.50009 M 15.00015 36.50009 L 16.000021 36.50009 M 19.000052 36.50009 L 22.999953 36.50009 M 23.999824 36.50009 L 25.999983 36.50009 M 26.999854 36.50009 L 28.000142 36.50009 M 32.000044 36.50009 L 32.999915 36.50009 M 34.000203 36.50009 L 35.000074 36.50009 " stroke="#000000" stroke-width="1" stroke-opacity="1" stroke-miterlimit="4"/></g></g></svg>