<svg xmlns="http://www.w3.org/2000/svg" width="256" height="256" viewBox="0 0 256 256"><title>Crash / Wreck</title><path d="M128 244 52 159a94 94 0 1 1 152 0Z" fill="#102b40" stroke="#9468bf" stroke-width="16" stroke-linejoin="round"/><path d="M128 244 52 159a94 94 0 1 1 152 0Z" fill="#102b40" stroke="#f0f9ff" stroke-width="4" stroke-linejoin="round"/><g transform="translate(-20.48 -15.36) scale(1.16)" fill="none" stroke="#f0f9ff" stroke-width="9" stroke-linecap="round" stroke-linejoin="round"><g transform="rotate(-12 101 110)"><path d="M79 97 87 78h29l8 19v29H79ZM81 97h41M87 126v10m29-10v10"/></g><g transform="rotate(12 155 110)"><path d="M132 97 140 78h29l8 19v29h-45ZM134 97h41M140 126v10m29-10v10"/></g><path d="M128 61V47m-12 20-10-9m34 9 10-9"/></g></svg>
