<svg xmlns="http://www.w3.org/2000/svg" width="256" height="256" viewBox="0 0 256 256"><title>Sleet / Freezing Rain</title><path d="M128 244 49 139a94 94 0 1 1 158 0Z" fill="#17445f" stroke="#fff" stroke-width="8"/><circle cx="128" cy="94" r="68" fill="#102b40" stroke="#ffffff" stroke-opacity=".38" stroke-width="4"/><g fill="none" stroke="#f0f9ff" stroke-width="8" stroke-linecap="round" stroke-linejoin="round"><path d="M87 95a18 18 0 0 1-2-35 24 24 0 0 1 46-7 20 20 0 0 1 30 14 15 15 0 0 1 7 28Z" fill="#f0f9ff" stroke="none"/><path d="m95 109-9 14m41-14-9 14m41-14-9 14m-39 13 6 6-6 6-6-6Zm39 0 6 6-6 6-6-6Z"/></g></svg>
