<?xml version="1.0" encoding="UTF-8"?>
<svg xmlns="http://www.w3.org/2000/svg" width="448" height="132" viewBox="0 0 448 132" role="img" aria-labelledby="title desc">
  <title id="title">Gridly Marker System V1</title>
  <desc id="desc">Reference sheet for the Gridly Marker System V1 premium marker family with dark bases, state-based status rings, and bold white glyphs.</desc>
  <metadata>V268.0C marker visual language refinement reference sheet.</metadata>
  <rect width="448" height="132" rx="18" fill="#050816"/>
  <g fill="#94A3B8" font-family="Inter, Arial, sans-serif" font-size="7" text-anchor="middle">
    <g transform="translate(16 6)">
      <path d="M16 43.2L10.6 28.2H21.4L16 43.2Z" fill="#0B1220"/>
      <circle cx="16" cy="16" r="15" fill="#0B1220"/>
      <circle cx="16" cy="16" r="14" fill="none" stroke="#F59E0B" stroke-width="2.4" opacity="0.98"/>
      <circle cx="16" cy="16" r="10.6" fill="#0B1220" opacity="0.72"/>
        <g aria-hidden="true">
          <rect x="9.5" y="6.9" width="13" height="16.2" rx="2.6" fill="#FFFFFF"/>
          <rect x="11.5" y="9.4" width="9" height="4.2" rx="0.9" fill="#0B1220"/>
          <rect x="11.6" y="15.4" width="8.8" height="1.8" rx="0.9" fill="#0B1220" opacity="0.9"/>
          <circle cx="12.9" cy="20.1" r="1.25" fill="#0B1220"/>
          <circle cx="19.1" cy="20.1" r="1.25" fill="#0B1220"/>
          <path d="M12.2 25.2L16 22.4L19.8 25.2H17.5L16 24.1L14.5 25.2H12.2Z" fill="#FFFFFF"/>
          <rect x="10.3" y="26" width="11.4" height="2" rx="1" fill="#FFFFFF"/>
        </g>
      <text x="16" y="58">train</text>
    </g>
    <g transform="translate(50 6)">
      <path d="M16 43.2L10.6 28.2H21.4L16 43.2Z" fill="#0B1220"/>
      <circle cx="16" cy="16" r="15" fill="#0B1220"/>
      <circle cx="16" cy="16" r="14" fill="none" stroke="#F59E0B" stroke-width="2.4" opacity="0.98"/>
      <circle cx="16" cy="16" r="10.6" fill="#0B1220" opacity="0.72"/>
        <g aria-hidden="true" fill="#FFFFFF">
          <path d="M7.8 12.8C10 10.6 12.5 10.6 14.7 12.8C16.1 14.1 17.6 14.1 19 12.8C20.8 11.1 22.8 11 24.4 12.4V16.4C22.4 14.8 20.6 14.8 19 16.3C16.8 18.3 14.4 18.3 12.2 16.3C10.7 14.9 9.3 14.9 7.8 16.2V12.8Z"/>
          <path d="M7.8 19.3C10 17.1 12.5 17.1 14.7 19.3C16.1 20.6 17.6 20.6 19 19.3C20.8 17.6 22.8 17.5 24.4 18.9V23C22.4 21.3 20.6 21.3 19 22.8C16.8 24.8 14.4 24.8 12.2 22.8C10.7 21.4 9.3 21.4 7.8 22.7V19.3Z"/>
        </g>
      <text x="16" y="58">flooding</text>
    </g>
    <g transform="translate(84 6)">
      <path d="M16 43.2L10.6 28.2H21.4L16 43.2Z" fill="#0B1220"/>
      <circle cx="16" cy="16" r="15" fill="#0B1220"/>
      <circle cx="16" cy="16" r="14" fill="none" stroke="#F59E0B" stroke-width="2.4" opacity="0.98"/>
      <circle cx="16" cy="16" r="10.6" fill="#0B1220" opacity="0.72"/>
        <g aria-hidden="true">
          <path d="M7.5 17.9H12.7L15 14.7H20.7L24.5 18.2V22.5H7.5V17.9Z" fill="#FFFFFF"/>
          <path d="M11.2 16.8H14.1L15.3 15.1H12.1L11.2 16.8Z" fill="#0B1220"/>
          <path d="M16.2 15.1H20L21.8 16.8H16.2V15.1Z" fill="#0B1220"/>
          <circle cx="11.4" cy="22.4" r="1.8" fill="#0B1220"/>
          <circle cx="20.7" cy="22.4" r="1.8" fill="#0B1220"/>
          <path d="M20.7 7.2L21.8 11.2L25.8 10.6L23 13.6L25.8 16.6L21.8 16L20.7 20L18.9 16.3L15.2 17.9L17.1 14.1L13.7 11.8L17.8 11.2L20.7 7.2Z" fill="#FFFFFF"/>
        </g>
      <text x="16" y="58">crash</text>
    </g>
    <g transform="translate(118 6)">
      <path d="M16 43.2L10.6 28.2H21.4L16 43.2Z" fill="#0B1220"/>
      <circle cx="16" cy="16" r="15" fill="#0B1220"/>
      <circle cx="16" cy="16" r="14" fill="none" stroke="#F59E0B" stroke-width="2.4" opacity="0.98"/>
      <circle cx="16" cy="16" r="10.6" fill="#0B1220" opacity="0.72"/>
        <g aria-hidden="true">
          <path d="M7.8 17.8H12.9L15 14.8H20.2L24.2 17.9V22.2H7.8V17.8Z" fill="#FFFFFF"/>
          <path d="M11.5 16.7H14.1L15.2 15.2H12.3L11.5 16.7Z" fill="#0B1220"/>
          <path d="M16.1 15.2H19.3L21.2 16.7H16.1V15.2Z" fill="#0B1220"/>
          <circle cx="11.6" cy="22.1" r="1.65" fill="#0B1220"/>
          <circle cx="20.4" cy="22.1" r="1.65" fill="#0B1220"/>
          <path d="M10.1 8.2L12 6.3L14.4 8.7L13 10.1L15.9 13L14 14.9L11.1 12L9.7 13.4L7.3 11L9.2 9.1L13.2 13.1L14.1 12.2L10.1 8.2Z" fill="#FFFFFF"/>
        </g>
      <text x="16" y="58">disabled</text>
    </g>
    <g transform="translate(152 6)">
      <path d="M16 43.2L10.6 28.2H21.4L16 43.2Z" fill="#0B1220"/>
      <circle cx="16" cy="16" r="15" fill="#0B1220"/>
      <circle cx="16" cy="16" r="14" fill="none" stroke="#F59E0B" stroke-width="2.4" opacity="0.98"/>
      <circle cx="16" cy="16" r="10.6" fill="#0B1220" opacity="0.72"/>
        <g aria-hidden="true">
          <rect x="7.6" y="12.1" width="16.8" height="8.2" rx="1.4" fill="#FFFFFF"/>
          <path d="M9 19.4L15.6 12.1H19.3L12.7 20.3H9V19.4Z" fill="#0B1220" opacity="0.9"/>
          <path d="M17 20.3L23.5 12.9V17L20.6 20.3H17Z" fill="#0B1220" opacity="0.9"/>
          <rect x="10" y="20.2" width="2.8" height="5.3" rx="1.1" fill="#FFFFFF"/>
          <rect x="19.2" y="20.2" width="2.8" height="5.3" rx="1.1" fill="#FFFFFF"/>
        </g>
      <text x="16" y="58">construction</text>
    </g>
    <g transform="translate(186 6)">
      <path d="M16 43.2L10.6 28.2H21.4L16 43.2Z" fill="#0B1220"/>
      <circle cx="16" cy="16" r="15" fill="#0B1220"/>
      <circle cx="16" cy="16" r="14" fill="none" stroke="#F59E0B" stroke-width="2.4" opacity="0.98"/>
      <circle cx="16" cy="16" r="10.6" fill="#0B1220" opacity="0.72"/>
        <g aria-hidden="true">
          <path d="M16 7.8L24.3 23H7.7L16 7.8Z" fill="#FFFFFF"/>
          <rect x="14.8" y="13" width="2.4" height="6" rx="1.2" fill="#0B1220"/>
          <circle cx="16" cy="21.2" r="1.2" fill="#0B1220"/>
          <path d="M8.6 25.4H13.3L14.6 23.5H18.1L19.8 25.4H23.4V27.5H8.6V25.4Z" fill="#FFFFFF"/>
        </g>
      <text x="16" y="58">debris</text>
    </g>
    <g transform="translate(220 6)">
      <path d="M16 43.2L10.6 28.2H21.4L16 43.2Z" fill="#0B1220"/>
      <circle cx="16" cy="16" r="15" fill="#0B1220"/>
      <circle cx="16" cy="16" r="14" fill="none" stroke="#F59E0B" stroke-width="2.4" opacity="0.98"/>
      <circle cx="16" cy="16" r="10.6" fill="#0B1220" opacity="0.72"/>
        <g aria-hidden="true">
          <circle cx="16" cy="16" r="8.7" fill="#FFFFFF"/>
          <rect x="10.2" y="13.9" width="11.6" height="4.2" rx="1.4" fill="#0B1220"/>
          <rect x="10.2" y="25.1" width="11.6" height="2.2" rx="1.1" fill="#FFFFFF"/>
        </g>
      <text x="16" y="58">road closed</text>
    </g>
    <g transform="translate(254 6)">
      <path d="M16 43.2L10.6 28.2H21.4L16 43.2Z" fill="#0B1220"/>
      <circle cx="16" cy="16" r="15" fill="#0B1220"/>
      <circle cx="16" cy="16" r="14" fill="none" stroke="#F59E0B" stroke-width="2.4" opacity="0.98"/>
      <circle cx="16" cy="16" r="10.6" fill="#0B1220" opacity="0.72"/>
        <g aria-hidden="true" fill="none" stroke="#FFFFFF" stroke-linecap="round" stroke-linejoin="round">
          <path d="M16 7.3V25.7" stroke-width="3.1"/>
          <path d="M9.3 11.6H22.7" stroke-width="3.1"/>
          <path d="M11 16.2H21" stroke-width="2.8"/>
          <path d="M9.4 11.6C11.4 14.1 13.8 14.1 15.7 11.6" stroke-width="2.3"/>
          <path d="M16.3 11.6C18.2 14.1 20.6 14.1 22.6 11.6" stroke-width="2.3"/>
          <path d="M12.7 25.7H19.3" stroke-width="3.1"/>
        </g>
      <text x="16" y="58">power line</text>
    </g>
    <g transform="translate(288 6)">
      <path d="M16 43.2L10.6 28.2H21.4L16 43.2Z" fill="#0B1220"/>
      <circle cx="16" cy="16" r="15" fill="#0B1220"/>
      <circle cx="16" cy="16" r="14" fill="none" stroke="#F59E0B" stroke-width="2.4" opacity="0.98"/>
      <circle cx="16" cy="16" r="10.6" fill="#0B1220" opacity="0.72"/>
        <g aria-hidden="true" fill="#FFFFFF">
          <path d="M8.4 17C8.4 14.1 10.8 11.8 14.1 11.8H19.6C22.2 11.8 24 13.6 24 16.2V20.4H21.4V18.1H12.2V20.4H9.8V18.4C9 18.1 8.4 17.6 8.4 17Z"/>
          <path d="M11.2 12.4L9.5 9L13 11.4Z"/>
          <path d="M20.1 11.9L23.2 8.9L22.3 13.2Z"/>
          <circle cx="12.8" cy="15.1" r="0.8" fill="#0B1220"/>
          <rect x="11.7" y="20.2" width="2.3" height="4.5" rx="1"/>
          <rect x="18.8" y="20.2" width="2.3" height="4.5" rx="1"/>
        </g>
      <text x="16" y="58">livestock</text>
    </g>
    <g transform="translate(322 6)">
      <path d="M16 43.2L10.6 28.2H21.4L16 43.2Z" fill="#0B1220"/>
      <circle cx="16" cy="16" r="15" fill="#0B1220"/>
      <circle cx="16" cy="16" r="14" fill="none" stroke="#F59E0B" stroke-width="2.4" opacity="0.98"/>
      <circle cx="16" cy="16" r="10.6" fill="#0B1220" opacity="0.72"/>
        <g aria-hidden="true">
          <path d="M16 7.2L23 10.2V15.6C23 20.4 20.2 23.9 16 25.7C11.8 23.9 9 20.4 9 15.6V10.2L16 7.2Z" fill="#FFFFFF"/>
          <rect x="14.5" y="11.6" width="3" height="9" rx="0.8" fill="#0B1220"/>
          <rect x="11.5" y="14.6" width="9" height="3" rx="0.8" fill="#0B1220"/>
          <path d="M11.2 8.9C12 7.3 13.7 6.2 16 6.2C18.3 6.2 20 7.3 20.8 8.9" fill="none" stroke="#FFFFFF" stroke-width="2.1" stroke-linecap="round"/>
        </g>
      <text x="16" y="58">emergency</text>
    </g>
    <g transform="translate(356 6)">
      <path d="M16 43.2L10.6 28.2H21.4L16 43.2Z" fill="#0B1220"/>
      <circle cx="16" cy="16" r="15" fill="#0B1220"/>
      <circle cx="16" cy="16" r="14" fill="none" stroke="#F59E0B" stroke-width="2.4" opacity="0.98"/>
      <circle cx="16" cy="16" r="10.6" fill="#0B1220" opacity="0.72"/>
        <g aria-hidden="true">
          <path d="M16 7.5L24.4 23.7H7.6L16 7.5Z" fill="#FFFFFF"/>
          <rect x="14.7" y="13" width="2.6" height="6.2" rx="1.3" fill="#0B1220"/>
          <circle cx="16" cy="21.5" r="1.25" fill="#0B1220"/>
          <circle cx="16" cy="16" r="9.6" fill="none" stroke="#FFFFFF" stroke-width="1.7" opacity="0.55"/>
        </g>
      <text x="16" y="58">other</text>
    </g>
    <g transform="translate(390 6)">
      <path d="M16 43.2L10.6 28.2H21.4L16 43.2Z" fill="#111827"/>
      <circle cx="16" cy="16" r="15" fill="#111827"/>
      <circle cx="16" cy="16" r="14" fill="none" stroke="#64748B" stroke-width="2.4" opacity="0.98"/>
      <circle cx="16" cy="16" r="10.6" fill="#1F2937" opacity="0.72"/>
        <g aria-hidden="true" fill="none" stroke-linecap="round" stroke-linejoin="round">
          <path d="M10 9.2L22 21.2M22 9.2L10 21.2" stroke="#F8FAFC" stroke-width="3"/>
          <path d="M16 7.1V26.2" stroke="#CBD5E1" stroke-width="2.8"/>
          <path d="M11.4 26.2H20.6" stroke="#CBD5E1" stroke-width="3"/>
          <path d="M12.2 13.1H19.8M12.2 17.7H19.8" stroke="#CBD5E1" stroke-width="2.3"/>
          <circle cx="16" cy="7.2" r="1.5" fill="#CBD5E1" stroke="none"/>
        </g>
      <text x="16" y="58">crossing</text>
    </g>
  </g>
</svg>
