<svg xmlns="http://www.w3.org/2000/svg" width="448" height="132" viewBox="0 0 448 132" role="img" aria-labelledby="title desc">
  <title id="title">Gridly Marker System V1</title>
  <desc id="desc">Reference sheet for the Gridly Marker System V1 dark circular 32 pixel marker family with 44 pixel pointer height, status rings, and white center glyphs.</desc>
  <rect width="448" height="132" rx="18" fill="#050816"/>
  <g fill="#94A3B8" font-family="Inter, Arial, sans-serif" font-size="7" text-anchor="middle">
    <g transform="translate(16 6)">
      <path d="M16 43.2L10.8 28.4H21.2L16 43.2Z" fill="#0B1220"/>
      <circle cx="16" cy="16" r="15" fill="#0B1220"/>
      <circle cx="16" cy="16" r="14" fill="none" stroke="#60A5FA" stroke-width="2" opacity="0.96"/>
      <circle cx="16" cy="16" r="10.8" fill="#111827" opacity="0.58"/>
      <g fill="none" stroke="#FFFFFF" stroke-linecap="round" stroke-linejoin="round" stroke-width="1.85">
    <rect x="10" y="7.8" width="12" height="14.2" rx="2.2" fill="#FFFFFF" stroke="none"/>
    <path d="M12.6 11.2H19.4" stroke="#111827"/>
    <path d="M12.4 15.2H19.6" stroke="#111827"/>
    <path d="M13.2 19.2H13.25M18.8 19.2H18.85" stroke="#111827" stroke-width="2.1"/>
    <path d="M12.6 24L16 21.7L19.4 24"/>
    <path d="M11 25.8H21"/>
      </g>
      <text x="16" y="58">train</text>
    </g>
    <g transform="translate(50 6)">
      <path d="M16 43.2L10.8 28.4H21.2L16 43.2Z" fill="#0B1220"/>
      <circle cx="16" cy="16" r="15" fill="#0B1220"/>
      <circle cx="16" cy="16" r="14" fill="none" stroke="#38BDF8" stroke-width="2" opacity="0.96"/>
      <circle cx="16" cy="16" r="10.8" fill="#111827" opacity="0.58"/>
      <g fill="none" stroke="#FFFFFF" stroke-linecap="round" stroke-linejoin="round" stroke-width="1.85">
    <path d="M8.2 12.2C10.1 10.5 12 10.5 13.9 12.2C15.5 13.6 17.1 13.6 18.7 12.2C20.3 10.8 21.9 10.8 23.8 12.2"/>
    <path d="M7.8 17C9.7 15.3 11.9 15.3 13.8 17C15.5 18.5 17.3 18.5 19 17C20.5 15.6 22.1 15.6 24.2 17"/>
    <path d="M8.2 21.8C10.2 20.1 12.1 20.1 14 21.8C15.6 23.2 17.4 23.2 19 21.8C20.6 20.4 22.2 20.4 23.8 21.8"/>
      </g>
      <text x="16" y="58">flooding</text>
    </g>
    <g transform="translate(84 6)">
      <path d="M16 43.2L10.8 28.4H21.2L16 43.2Z" fill="#0B1220"/>
      <circle cx="16" cy="16" r="15" fill="#0B1220"/>
      <circle cx="16" cy="16" r="14" fill="none" stroke="#F97316" stroke-width="2" opacity="0.96"/>
      <circle cx="16" cy="16" r="10.8" fill="#111827" opacity="0.58"/>
      <g fill="none" stroke="#FFFFFF" stroke-linecap="round" stroke-linejoin="round" stroke-width="1.85">
    <path d="M8.2 19.2H13.3L15.5 16H20.6L23.8 19.2"/>
    <path d="M9.2 19.2V22H22.8V19.2"/>
    <path d="M11.6 23.1H11.65M20.4 23.1H20.45" stroke-width="2.6"/>
    <path d="M18.9 8.5L17.7 12.2"/>
    <path d="M23.2 10.6L20.2 13"/>
    <path d="M25 15.2L21.3 15.5"/>
      </g>
      <text x="16" y="58">crash</text>
    </g>
    <g transform="translate(118 6)">
      <path d="M16 43.2L10.8 28.4H21.2L16 43.2Z" fill="#0B1220"/>
      <circle cx="16" cy="16" r="15" fill="#0B1220"/>
      <circle cx="16" cy="16" r="14" fill="none" stroke="#A78BFA" stroke-width="2" opacity="0.96"/>
      <circle cx="16" cy="16" r="10.8" fill="#111827" opacity="0.58"/>
      <g fill="none" stroke="#FFFFFF" stroke-linecap="round" stroke-linejoin="round" stroke-width="1.85">
    <path d="M8.2 18.3H13.1L15 15.3H20.1L23.8 18.3"/>
    <path d="M9 18.3V21.2H22.8V18.3"/>
    <path d="M11.2 22.4H11.25M20.6 22.4H20.65" stroke-width="2.45"/>
    <path d="M10.2 11.2L14.3 15.3"/>
    <path d="M9.4 10.3L11.1 8.6"/>
    <path d="M13.5 14.5L15.4 12.6"/>
      </g>
      <text x="16" y="58">disabled</text>
    </g>
    <g transform="translate(152 6)">
      <path d="M16 43.2L10.8 28.4H21.2L16 43.2Z" fill="#0B1220"/>
      <circle cx="16" cy="16" r="15" fill="#0B1220"/>
      <circle cx="16" cy="16" r="14" fill="none" stroke="#F59E0B" stroke-width="2" opacity="0.96"/>
      <circle cx="16" cy="16" r="10.8" fill="#111827" opacity="0.58"/>
      <g fill="none" stroke="#FFFFFF" stroke-linecap="round" stroke-linejoin="round" stroke-width="1.85">
    <path d="M8.8 13.2H23.2V19.8H8.8Z"/>
    <path d="M11 19.8V24.4"/>
    <path d="M21 19.8V24.4"/>
    <path d="M10.2 18.6L14.9 13.8"/>
    <path d="M16.4 19.3L21.3 14.3"/>
      </g>
      <text x="16" y="58">construction</text>
    </g>
    <g transform="translate(186 6)">
      <path d="M16 43.2L10.8 28.4H21.2L16 43.2Z" fill="#0B1220"/>
      <circle cx="16" cy="16" r="15" fill="#0B1220"/>
      <circle cx="16" cy="16" r="14" fill="none" stroke="#FBBF24" stroke-width="2" opacity="0.96"/>
      <circle cx="16" cy="16" r="10.8" fill="#111827" opacity="0.58"/>
      <g fill="none" stroke="#FFFFFF" stroke-linecap="round" stroke-linejoin="round" stroke-width="1.85">
    <path d="M16 8.5L22.7 22.8H9.3L16 8.5Z"/>
    <path d="M16 13.2V17.8"/>
    <path d="M16 20.7H16.05" stroke-width="2.4"/>
    <path d="M10.4 25H21.6"/>
      </g>
      <text x="16" y="58">debris</text>
    </g>
    <g transform="translate(220 6)">
      <path d="M16 43.2L10.8 28.4H21.2L16 43.2Z" fill="#0B1220"/>
      <circle cx="16" cy="16" r="15" fill="#0B1220"/>
      <circle cx="16" cy="16" r="14" fill="none" stroke="#EF4444" stroke-width="2" opacity="0.96"/>
      <circle cx="16" cy="16" r="10.8" fill="#111827" opacity="0.58"/>
      <g fill="none" stroke="#FFFFFF" stroke-linecap="round" stroke-linejoin="round" stroke-width="1.85">
    <circle cx="16" cy="16" r="7.2"/>
    <path d="M11.2 16H20.8"/>
    <path d="M10.8 24H21.2"/>
      </g>
      <text x="16" y="58">road closed</text>
    </g>
    <g transform="translate(254 6)">
      <path d="M16 43.2L10.8 28.4H21.2L16 43.2Z" fill="#0B1220"/>
      <circle cx="16" cy="16" r="15" fill="#0B1220"/>
      <circle cx="16" cy="16" r="14" fill="none" stroke="#FDE047" stroke-width="2" opacity="0.96"/>
      <circle cx="16" cy="16" r="10.8" fill="#111827" opacity="0.58"/>
      <g fill="none" stroke="#FFFFFF" stroke-linecap="round" stroke-linejoin="round" stroke-width="1.85">
    <path d="M16 8.2V24.7"/>
    <path d="M10.2 12.2H21.8"/>
    <path d="M11.4 16H20.6"/>
    <path d="M10 12.2C11.8 14 13.7 14 15.5 12.2"/>
    <path d="M16.5 12.2C18.3 14 20.2 14 22 12.2"/>
    <path d="M13.2 24.7H18.8"/>
      </g>
      <text x="16" y="58">power line</text>
    </g>
    <g transform="translate(288 6)">
      <path d="M16 43.2L10.8 28.4H21.2L16 43.2Z" fill="#0B1220"/>
      <circle cx="16" cy="16" r="15" fill="#0B1220"/>
      <circle cx="16" cy="16" r="14" fill="none" stroke="#22C55E" stroke-width="2" opacity="0.96"/>
      <circle cx="16" cy="16" r="10.8" fill="#111827" opacity="0.58"/>
      <g fill="none" stroke="#FFFFFF" stroke-linecap="round" stroke-linejoin="round" stroke-width="1.85">
    <path d="M9 17.2C9 14.7 11.1 12.7 13.8 12.7H19.5C22 12.7 23.3 14.2 23.3 16.4V20.1H20.9V17.8H12.5V20.1H10.1V18.4C9.4 18.1 9 17.7 9 17.2Z" fill="#FFFFFF" stroke="none"/>
    <path d="M12.3 12.7L10.5 10.2"/>
    <path d="M20.7 12.7L22.7 10.4"/>
    <path d="M13.1 20.8V23.8"/>
    <path d="M19.5 20.8V23.8"/>
      </g>
      <text x="16" y="58">livestock</text>
    </g>
    <g transform="translate(322 6)">
      <path d="M16 43.2L10.8 28.4H21.2L16 43.2Z" fill="#0B1220"/>
      <circle cx="16" cy="16" r="15" fill="#0B1220"/>
      <circle cx="16" cy="16" r="14" fill="none" stroke="#FB7185" stroke-width="2" opacity="0.96"/>
      <circle cx="16" cy="16" r="10.8" fill="#111827" opacity="0.58"/>
      <g fill="none" stroke="#FFFFFF" stroke-linecap="round" stroke-linejoin="round" stroke-width="1.85">
    <path d="M16 7.8L22.1 10.5V15.5C22.1 19.7 19.6 22.8 16 24.4C12.4 22.8 9.9 19.7 9.9 15.5V10.5L16 7.8Z"/>
    <path d="M16 12.1V19.8"/>
    <path d="M12.2 16H19.8"/>
      </g>
      <text x="16" y="58">emergency</text>
    </g>
    <g transform="translate(356 6)">
      <path d="M16 43.2L10.8 28.4H21.2L16 43.2Z" fill="#0B1220"/>
      <circle cx="16" cy="16" r="15" fill="#0B1220"/>
      <circle cx="16" cy="16" r="14" fill="none" stroke="#94A3B8" stroke-width="2" opacity="0.96"/>
      <circle cx="16" cy="16" r="10.8" fill="#111827" opacity="0.58"/>
      <g fill="none" stroke="#FFFFFF" stroke-linecap="round" stroke-linejoin="round" stroke-width="1.85">
    <path d="M16 8.7L23.1 22.6H8.9L16 8.7Z"/>
    <path d="M16 13.5V18"/>
    <path d="M16 20.8H16.05" stroke-width="2.4"/>
      </g>
      <text x="16" y="58">other</text>
    </g>
    <g transform="translate(390 6)">
      <path d="M16 43.2L10.8 28.4H21.2L16 43.2Z" fill="#0B1220"/>
      <circle cx="16" cy="16" r="15" fill="#0B1220"/>
      <circle cx="16" cy="16" r="14" fill="none" stroke="#2DD4BF" stroke-width="2" opacity="0.96"/>
      <circle cx="16" cy="16" r="10.8" fill="#111827" opacity="0.58"/>
      <g fill="none" stroke="#FFFFFF" stroke-linecap="round" stroke-linejoin="round" stroke-width="1.85">
    <path d="M10 9.8L22 21.8"/>
    <path d="M22 9.8L10 21.8"/>
    <path d="M16 7.4V24.8"/>
    <path d="M11.7 24.8H20.3"/>
    <path d="M13.7 13.5H18.3"/>
    <path d="M13.7 18.1H18.3"/>
      </g>
      <text x="16" y="58">crossing</text>
    </g>
  </g>
</svg>
