<?xml version="1.0" encoding="UTF-8"?>
<svg xmlns="http://www.w3.org/2000/svg" width="32" height="44" viewBox="0 0 32 44" role="img" aria-labelledby="title desc">
  <title id="title">Gridly train marker</title>
  <desc id="desc">Dark premium circular Gridly marker with active amber status ring and bold filled white train glyph.</desc>
  <metadata>V268.0C marker visual language refinement: premium dark base, state-based status ring, and bold filled glyph.</metadata>
  <defs>
    <filter id="gridlyMarkerShadow" x="-30%" y="-20%" width="160%" height="150%" color-interpolation-filters="sRGB">
      <feDropShadow dx="0" dy="2" stdDeviation="2" flood-color="#020617" flood-opacity="0.42"/>
    </filter>
    <linearGradient id="gridlyMarkerBase" x1="8" y1="3" x2="25" y2="33" gradientUnits="userSpaceOnUse">
      <stop offset="0" stop-color="#1F2937"/>
      <stop offset="1" stop-color="#060A11"/>
    </linearGradient>
  </defs>
  <g filter="url(#gridlyMarkerShadow)">
    <path d="M16 43.2L10.6 28.2H21.4L16 43.2Z" fill="url(#gridlyMarkerBase)"/>
    <circle cx="16" cy="16" r="15" fill="url(#gridlyMarkerBase)"/>
    <circle cx="16" cy="16" r="14" fill="none" stroke="#F59E0B" stroke-width="2.4" opacity="0.98"/>
    <circle cx="16" cy="16" r="10.6" fill="#0B1220" opacity="0.72"/>
  </g>
  <g aria-hidden="true">
    <rect x="9.5" y="6.9" width="13" height="16.2" rx="2.6" fill="#FFFFFF"/>
    <rect x="11.5" y="9.4" width="9" height="4.2" rx="0.9" fill="#0B1220"/>
    <rect x="11.6" y="15.4" width="8.8" height="1.8" rx="0.9" fill="#0B1220" opacity="0.9"/>
    <circle cx="12.9" cy="20.1" r="1.25" fill="#0B1220"/>
    <circle cx="19.1" cy="20.1" r="1.25" fill="#0B1220"/>
    <path d="M12.2 25.2L16 22.4L19.8 25.2H17.5L16 24.1L14.5 25.2H12.2Z" fill="#FFFFFF"/>
    <rect x="10.3" y="26" width="11.4" height="2" rx="1" fill="#FFFFFF"/>
  </g>
</svg>
