<?xml version="1.0" encoding="UTF-8"?>
<svg xmlns="http://www.w3.org/2000/svg" width="32" height="44" viewBox="0 0 32 44" role="img" aria-labelledby="title desc">
  <title id="title">Gridly disabled vehicle marker</title>
  <desc id="desc">Dark premium circular Gridly marker with active amber status ring and bold filled white disabled glyph.</desc>
  <metadata>V268.0C marker visual language refinement: premium dark base, state-based status ring, and bold filled glyph.</metadata>
  <defs>
    <filter id="gridlyMarkerShadow" x="-30%" y="-20%" width="160%" height="150%" color-interpolation-filters="sRGB">
      <feDropShadow dx="0" dy="2" stdDeviation="2" flood-color="#020617" flood-opacity="0.42"/>
    </filter>
    <linearGradient id="gridlyMarkerBase" x1="8" y1="3" x2="25" y2="33" gradientUnits="userSpaceOnUse">
      <stop offset="0" stop-color="#1F2937"/>
      <stop offset="1" stop-color="#060A11"/>
    </linearGradient>
  </defs>
  <g filter="url(#gridlyMarkerShadow)">
    <path d="M16 43.2L10.6 28.2H21.4L16 43.2Z" fill="url(#gridlyMarkerBase)"/>
    <circle cx="16" cy="16" r="15" fill="url(#gridlyMarkerBase)"/>
    <circle cx="16" cy="16" r="14" fill="none" stroke="#F59E0B" stroke-width="2.4" opacity="0.98"/>
    <circle cx="16" cy="16" r="10.6" fill="#0B1220" opacity="0.72"/>
  </g>
  <g aria-hidden="true">
    <path d="M7.8 17.8H12.9L15 14.8H20.2L24.2 17.9V22.2H7.8V17.8Z" fill="#FFFFFF"/>
    <path d="M11.5 16.7H14.1L15.2 15.2H12.3L11.5 16.7Z" fill="#0B1220"/>
    <path d="M16.1 15.2H19.3L21.2 16.7H16.1V15.2Z" fill="#0B1220"/>
    <circle cx="11.6" cy="22.1" r="1.65" fill="#0B1220"/>
    <circle cx="20.4" cy="22.1" r="1.65" fill="#0B1220"/>
    <path d="M10.1 8.2L12 6.3L14.4 8.7L13 10.1L15.9 13L14 14.9L11.1 12L9.7 13.4L7.3 11L9.2 9.1L13.2 13.1L14.1 12.2L10.1 8.2Z" fill="#FFFFFF"/>
  </g>
</svg>
