<?xml version="1.0" encoding="UTF-8"?>
<svg xmlns="http://www.w3.org/2000/svg" width="32" height="44" viewBox="0 0 32 44" role="img" aria-labelledby="title desc">
  <title id="title">Gridly crash marker</title>
  <desc id="desc">Dark premium circular Gridly marker with active amber status ring and bold filled white crash glyph.</desc>
  <metadata>V268.0C marker visual language refinement: premium dark base, state-based status ring, and bold filled glyph.</metadata>
  <defs>
    <filter id="gridlyMarkerShadow" x="-30%" y="-20%" width="160%" height="150%" color-interpolation-filters="sRGB">
      <feDropShadow dx="0" dy="2" stdDeviation="2" flood-color="#020617" flood-opacity="0.42"/>
    </filter>
    <linearGradient id="gridlyMarkerBase" x1="8" y1="3" x2="25" y2="33" gradientUnits="userSpaceOnUse">
      <stop offset="0" stop-color="#1F2937"/>
      <stop offset="1" stop-color="#060A11"/>
    </linearGradient>
  </defs>
  <g filter="url(#gridlyMarkerShadow)">
    <path d="M16 43.2L10.6 28.2H21.4L16 43.2Z" fill="url(#gridlyMarkerBase)"/>
    <circle cx="16" cy="16" r="15" fill="url(#gridlyMarkerBase)"/>
    <circle cx="16" cy="16" r="14" fill="none" stroke="#F59E0B" stroke-width="2.4" opacity="0.98"/>
    <circle cx="16" cy="16" r="10.6" fill="#0B1220" opacity="0.72"/>
  </g>
  <g aria-hidden="true">
    <path d="M7.5 17.9H12.7L15 14.7H20.7L24.5 18.2V22.5H7.5V17.9Z" fill="#FFFFFF"/>
    <path d="M11.2 16.8H14.1L15.3 15.1H12.1L11.2 16.8Z" fill="#0B1220"/>
    <path d="M16.2 15.1H20L21.8 16.8H16.2V15.1Z" fill="#0B1220"/>
    <circle cx="11.4" cy="22.4" r="1.8" fill="#0B1220"/>
    <circle cx="20.7" cy="22.4" r="1.8" fill="#0B1220"/>
    <path d="M20.7 7.2L21.8 11.2L25.8 10.6L23 13.6L25.8 16.6L21.8 16L20.7 20L18.9 16.3L15.2 17.9L17.1 14.1L13.7 11.8L17.8 11.2L20.7 7.2Z" fill="#FFFFFF"/>
  </g>
</svg>
