<?xml version="1.0" encoding="UTF-8"?>
<svg xmlns="http://www.w3.org/2000/svg" width="32" height="44" viewBox="0 0 32 44" role="img" aria-labelledby="title desc">
  <title id="title">Gridly livestock marker</title>
  <desc id="desc">Dark premium circular Gridly marker with active amber status ring and bold filled white livestock glyph.</desc>
  <metadata>V268.0C marker visual language refinement: premium dark base, state-based status ring, and bold filled glyph.</metadata>
  <defs>
    <filter id="gridlyMarkerShadow" x="-30%" y="-20%" width="160%" height="150%" color-interpolation-filters="sRGB">
      <feDropShadow dx="0" dy="2" stdDeviation="2" flood-color="#020617" flood-opacity="0.42"/>
    </filter>
    <linearGradient id="gridlyMarkerBase" x1="8" y1="3" x2="25" y2="33" gradientUnits="userSpaceOnUse">
      <stop offset="0" stop-color="#1F2937"/>
      <stop offset="1" stop-color="#060A11"/>
    </linearGradient>
  </defs>
  <g filter="url(#gridlyMarkerShadow)">
    <path d="M16 43.2L10.6 28.2H21.4L16 43.2Z" fill="url(#gridlyMarkerBase)"/>
    <circle cx="16" cy="16" r="15" fill="url(#gridlyMarkerBase)"/>
    <circle cx="16" cy="16" r="14" fill="none" stroke="#F59E0B" stroke-width="2.4" opacity="0.98"/>
    <circle cx="16" cy="16" r="10.6" fill="#0B1220" opacity="0.72"/>
  </g>
  <g aria-hidden="true" fill="#FFFFFF">
    <path d="M8.4 17C8.4 14.1 10.8 11.8 14.1 11.8H19.6C22.2 11.8 24 13.6 24 16.2V20.4H21.4V18.1H12.2V20.4H9.8V18.4C9 18.1 8.4 17.6 8.4 17Z"/>
    <path d="M11.2 12.4L9.5 9L13 11.4Z"/>
    <path d="M20.1 11.9L23.2 8.9L22.3 13.2Z"/>
    <circle cx="12.8" cy="15.1" r="0.8" fill="#0B1220"/>
    <rect x="11.7" y="20.2" width="2.3" height="4.5" rx="1"/>
    <rect x="18.8" y="20.2" width="2.3" height="4.5" rx="1"/>
  </g>
</svg>
