<?xml version="1.0" encoding="UTF-8"?>
<svg xmlns="http://www.w3.org/2000/svg" width="32" height="44" viewBox="0 0 32 44" role="img" aria-labelledby="title desc">
  <title id="title">Gridly emergency marker</title>
  <desc id="desc">Dark premium circular Gridly marker with active amber status ring and bold filled white emergency glyph.</desc>
  <metadata>V268.0C marker visual language refinement: premium dark base, state-based status ring, and bold filled glyph.</metadata>
  <defs>
    <filter id="gridlyMarkerShadow" x="-30%" y="-20%" width="160%" height="150%" color-interpolation-filters="sRGB">
      <feDropShadow dx="0" dy="2" stdDeviation="2" flood-color="#020617" flood-opacity="0.42"/>
    </filter>
    <linearGradient id="gridlyMarkerBase" x1="8" y1="3" x2="25" y2="33" gradientUnits="userSpaceOnUse">
      <stop offset="0" stop-color="#1F2937"/>
      <stop offset="1" stop-color="#060A11"/>
    </linearGradient>
  </defs>
  <g filter="url(#gridlyMarkerShadow)">
    <path d="M16 43.2L10.6 28.2H21.4L16 43.2Z" fill="url(#gridlyMarkerBase)"/>
    <circle cx="16" cy="16" r="15" fill="url(#gridlyMarkerBase)"/>
    <circle cx="16" cy="16" r="14" fill="none" stroke="#F59E0B" stroke-width="2.4" opacity="0.98"/>
    <circle cx="16" cy="16" r="10.6" fill="#0B1220" opacity="0.72"/>
  </g>
  <g aria-hidden="true">
    <path d="M16 7.2L23 10.2V15.6C23 20.4 20.2 23.9 16 25.7C11.8 23.9 9 20.4 9 15.6V10.2L16 7.2Z" fill="#FFFFFF"/>
    <rect x="14.5" y="11.6" width="3" height="9" rx="0.8" fill="#0B1220"/>
    <rect x="11.5" y="14.6" width="9" height="3" rx="0.8" fill="#0B1220"/>
    <path d="M11.2 8.9C12 7.3 13.7 6.2 16 6.2C18.3 6.2 20 7.3 20.8 8.9" fill="none" stroke="#FFFFFF" stroke-width="2.1" stroke-linecap="round"/>
  </g>
</svg>
